<svg xmlns="http://www.w3.org/2000/svg" xmlns:xlink="http://www.w3.org/1999/xlink" width="396" height="111.96297119451341" viewBox="0 0 370 104.61186702517668" class="looka-1j8o68f"><defs id="SvgjsDefs1285"></defs><g id="SvgjsG1286" featurekey="HKaMnE-0" transform="matrix(1.1110986781628487,0,0,1.1110986781628487,0.4445066091857566,9.619205158226787)" fill="#92969b"><path xmlns="http://www.w3.org/2000/svg" fill-rule="evenodd" clip-rule="evenodd" d="M90.522,45.521h-3.683v-8.184c0-1.504-3.243-2.722-5.557-2.722  c-1.117,0-0.77,5.881-1.522,6.346V32.8c0-1.502-3.241-2.721-5.556-2.721c-1.071,0-0.684,5.856-1.425,6.286v-8.101  c0-1.501-1.878-2.72-4.192-2.72s-4.192,1.219-4.192,2.72v17.258H35.606V28.263c0-1.501-1.878-2.72-4.192-2.72  s-4.192,1.219-4.192,2.72v8.101c-0.742-0.43-0.354-6.286-1.426-6.286c-2.314,0-5.556,1.219-5.556,2.721v8.162  c-0.752-0.465-0.405-6.346-1.523-6.346c-2.314,0-5.557,1.219-5.557,2.722v8.184H9.477C7.006,45.521,5,47.527,5,49.999  c0,2.472,2.006,4.477,4.477,4.477h3.684v8.185c0,1.502,3.243,2.721,5.557,2.721c1.117,0,0.77-5.88,1.523-6.343v8.159  c0,1.502,3.241,2.722,5.556,2.722c1.072,0,0.684-5.857,1.426-6.287v8.101c0,1.504,1.878,2.722,4.192,2.722s4.192-1.219,4.192-2.722  V54.476h28.789v17.258c0,1.504,1.878,2.722,4.192,2.722s4.192-1.219,4.192-2.722v-8.101c0.742,0.43,0.354,6.287,1.425,6.287  c2.315,0,5.556-1.22,5.556-2.722v-8.159c0.752,0.463,0.405,6.343,1.522,6.343c2.314,0,5.557-1.219,5.557-2.721v-8.185h3.683  c2.472,0,4.478-2.005,4.478-4.477C95,47.527,92.994,45.521,90.522,45.521z"></path></g><g id="SvgjsG1287" featurekey="J3GnXt-0" transform="matrix(3.5940208601937074,0,0,3.5940208601937074,115.11213200716435,12.461177790951663)" fill="#f31212"><path d="M6.52 10.28 c1.4 0 2.5434 0.45998 3.43 1.38 s1.3433 2.12 1.37 3.6 c0 1.48 -0.45334 2.6766 -1.36 3.59 s-2.06 1.3767 -3.46 1.39 c-0.69334 0 -1.34 -0.14666 -1.94 -0.44 s-1.0533 -0.68 -1.36 -1.16 l-0.04 0 l0 7 l-1.8 0 l0 -15.12 l1.8 0 l0 1.36 l0.04 0 c0.36 -0.50666 0.83334 -0.9 1.42 -1.18 s1.22 -0.42 1.9 -0.42 z M3.16 15.26 c0 0.98666 0.28998 1.7833 0.86998 2.39 s1.33 0.91 2.25 0.91 c0.96 0 1.7167 -0.30334 2.27 -0.91 s0.83668 -1.4033 0.85002 -2.39 c0 -0.98666 -0.28334 -1.78 -0.85 -2.38 s-1.33 -0.90666 -2.29 -0.92 c-0.94666 0 -1.7 0.31 -2.26 0.93 s-0.84 1.41 -0.84 2.37 z M15.38 10.52 l0 5.68 c0 0.74666 0.19666 1.3267 0.59 1.74 s0.91668 0.62 1.57 0.62 c0.84 0 1.49 -0.27666 1.95 -0.83 s0.69 -1.3033 0.69 -2.25 l0 -4.96 l1.8 0 l0 9.48 l-1.8 0 l0 -1.46 l-0.04 0 c-0.25334 0.53334 -0.66668 0.95 -1.24 1.25 s-1.2 0.45 -1.88 0.45 c-1.0533 0 -1.89 -0.32666 -2.51 -0.98 s-0.93 -1.5067 -0.93 -2.56 l0 -6.18 l1.8 0 z M26.640000000000004 4.880000000000001 l0 15.12 l-1.8 0 l0 -15.12 l1.8 0 z M32.7 10.28 c0.72 0 1.3633 0.13338 1.93 0.40004 s1.0033 0.65332 1.31 1.16 l-1.4 1.06 c-0.53334 -0.62666 -1.18 -0.94 -1.94 -0.94 c-0.45334 0 -0.83 0.1 -1.13 0.3 s-0.45 0.45334 -0.45 0.76 c0 0.66666 0.62 1.12 1.86 1.36 c1.2133 0.22666 2.07 0.56 2.57 1 s0.75 1.0667 0.75 1.88 c0 0.92 -0.35 1.6433 -1.05 2.17 s-1.6367 0.79666 -2.81 0.81 c-0.88 0 -1.6033 -0.13666 -2.17 -0.41 s-1.0567 -0.69668 -1.47 -1.27 l1.36 -1.12 c0.72 0.74666 1.4867 1.12 2.3 1.12 c0.53334 0 0.98668 -0.10666 1.36 -0.32 s0.56 -0.50668 0.56 -0.88002 c0 -0.65334 -0.6 -1.1067 -1.8 -1.36 c-1.3333 -0.26666 -2.23 -0.62332 -2.69 -1.07 s-0.69 -1.0233 -0.69 -1.73 c0 -0.88 0.34 -1.5833 1.02 -2.11 s1.54 -0.79666 2.58 -0.81 z M42.720000000000006 10.28 c1.4533 0 2.5834 0.45664 3.39 1.37 s1.2167 2.17 1.23 3.77 l0 0.5 l-7.6 0 c0 0.77334 0.31 1.4233 0.93 1.95 s1.3767 0.79666 2.27 0.81 c0.98666 0 1.8533 -0.47334 2.6 -1.42 l1.36 1.04 c-1.0133 1.2933 -2.4134 1.94 -4.2 1.94 c-1.4533 0 -2.6234 -0.46334 -3.51 -1.39 s-1.3433 -2.1234 -1.37 -3.59 c0 -1.4133 0.45666 -2.59 1.37 -3.53 s2.09 -1.4233 3.53 -1.45 z M45.42 14.48 c-0.02666 -0.89334 -0.28 -1.5767 -0.76 -2.05 s-1.14 -0.71 -1.98 -0.71 c-0.56 0 -1.0633 0.13666 -1.51 0.41 s-0.79666 0.62668 -1.05 1.06 s-0.38 0.86334 -0.38 1.29 l5.68 0 z M58.86 5.84 l0 1.8 l-6.98 0 l0 4.44 l6.5 0 l0 1.8 l-6.5 0 l0 6.12 l-1.92 0 l0 -14.16 l8.9 0 z M62.02 5.800000000000001 c0.36 0 0.67002 0.13002 0.93002 0.39002 s0.39 0.57 0.39 0.93 c0 0.37334 -0.13334 0.68668 -0.4 0.94002 s-0.57332 0.38 -0.91998 0.38 c-0.37334 0 -0.68668 -0.12666 -0.94002 -0.38 s-0.38 -0.56668 -0.38 -0.94002 s0.13334 -0.68668 0.4 -0.94002 s0.57332 -0.38 0.91998 -0.38 z M62.92 10.52 l0 9.48 l-1.8 0 l0 -9.48 l1.8 0 z M68.28 7.859999999999999 l-0.000019531 2.66 l2.58 0 l0 1.56 l-2.58 0 l0 4.56 c0 0.61334 0.08666 1.0867 0.26 1.42 s0.54 0.5 1.1 0.5 c0.53334 0 0.96 -0.09334 1.28 -0.28 l0 1.64 c-0.34666 0.18666 -0.89332 0.29332 -1.64 0.31998 c-0.72 0 -1.2767 -0.11 -1.67 -0.33 s-0.68 -0.52666 -0.86 -0.92 s-0.27 -1.01 -0.27 -1.85 l0 -5.06 l-2.08 0 l0 -1.56 l2.08 0 l0 -2.66 l1.8 0 z"></path></g></svg>